<svg id="Capa_1" enable-background="new 0 0 512 512" height="512" viewBox="0 0 512 512" width="512" xmlns="http://www.w3.org/2000/svg"><g><g fill="#57a4ff"><path d="m48 64h64v64h-64z"/><path d="m48 160h64v64h-64z"/><path d="m48 256h64v64h-64z"/><path d="m336 224c-66.274 0-120 53.726-120 120s53.726 120 120 120 120-53.726 120-120c-.03-66.262-53.738-119.97-120-120zm0 136c-8.837 0-16-7.163-16-16s7.163-16 16-16 16 7.163 16 16-7.163 16-16 16z"/><path d="m360 192v-23.95c0-4.446-3.604-8.05-8.05-8.05h-15.95-15.95c-4.446 0-8.05 3.604-8.05 8.05v23.95h14.31z"/></g><g fill="#004fac"><path d="m357.655 354.341c5.713-11.954.654-26.275-11.3-31.988-.806-.385-1.632-.725-2.475-1.018.077-.441.117-.887.12-1.335v-56c0-4.418-3.582-8-8-8s-8 3.582-8 8v56c.003.448.043.894.12 1.335-12.531 4.319-19.188 17.98-14.869 30.511s17.98 19.188 30.511 14.869c.879-.303 1.74-.657 2.578-1.06l24 24c3.124 3.124 8.19 3.124 11.314 0s3.124-8.19 0-11.314zm-29.655-10.341c0-4.418 3.582-8 8-8s8 3.582 8 8-3.582 8-8 8c-4.416-.005-7.995-3.584-8-8z"/><path d="m360 185.8v-17.8c0-4.418-3.582-8-8-8h-8v-144c0-4.418-3.582-8-8-8h-312c-4.418 0-8 3.582-8 8v432c0 4.418 3.582 8 8 8h197.86c30.031 30.717 71.182 48.022 114.14 48 88.22 0 160-71.78 160-160 0-80.07-59.12-146.59-136-158.2zm-16-9.8v8h-16v-8zm-312 264v-416h296v136h-8c-4.418 0-8 3.582-8 8v17.8c-76.88 11.61-136 78.13-136 158.2-.036 34.638 11.227 68.342 32.08 96zm304 48c-79.4 0-144-64.6-144-144s64.6-144 144-144 144 64.6 144 144-64.6 144-144 144z"/><path d="m336 216c-70.692 0-128 57.308-128 128s57.308 128 128 128 128-57.308 128-128c-.08-70.659-57.341-127.92-128-128zm8 239.711v-7.711c0-4.418-3.582-8-8-8s-8 3.582-8 8v7.711c-55.514-4.049-99.662-48.197-103.711-103.711h7.711c4.418 0 8-3.582 8-8s-3.582-8-8-8h-7.711c4.049-55.514 48.197-99.662 103.711-103.711v7.711c0 4.418 3.582 8 8 8s8-3.582 8-8v-7.711c55.514 4.049 99.662 48.197 103.711 103.711h-7.711c-4.418 0-8 3.582-8 8s3.582 8 8 8h7.711c-4.049 55.514-48.197 99.662-103.711 103.711z"/><path d="m139.2 49.6-19.2 14.4c0-4.418-3.582-8-8-8h-64c-4.418 0-8 3.582-8 8v64c0 4.418 3.582 8 8 8h64c4.418 0 8-3.582 8-8v-44l28.8-21.6c3.535-2.651 4.251-7.665 1.6-11.2s-7.665-4.251-11.2-1.6zm-35.2 70.4h-48v-48h48v4l-21.131 15.849-3.714-7.427c-1.945-3.967-6.738-5.606-10.705-3.661s-5.606 6.738-3.661 10.705c.018.037.037.075.056.112l8 16c1.976 3.952 6.782 5.553 10.733 3.577.429-.215.838-.467 1.222-.755l19.2-14.4z"/><path d="m139.2 145.6-19.2 14.4c0-4.418-3.582-8-8-8h-64c-4.418 0-8 3.582-8 8v64c0 4.418 3.582 8 8 8h64c4.418 0 8-3.582 8-8v-44l28.8-21.6c3.535-2.651 4.251-7.665 1.6-11.2s-7.665-4.251-11.2-1.6zm-35.2 70.4h-48v-48h48v4l-21.131 15.849-3.714-7.427c-1.945-3.967-6.738-5.606-10.705-3.661s-5.606 6.738-3.661 10.705c.018.037.037.074.056.112l8 16c1.976 3.952 6.782 5.553 10.733 3.577.429-.215.838-.467 1.222-.755l19.2-14.4z"/><path d="m168 80h8c4.418 0 8-3.582 8-8s-3.582-8-8-8h-8c-4.418 0-8 3.582-8 8s3.582 8 8 8z"/><path d="m200 80h104c4.418 0 8-3.582 8-8s-3.582-8-8-8h-104c-4.418 0-8 3.582-8 8s3.582 8 8 8z"/><path d="m168 104h8c4.418 0 8-3.582 8-8s-3.582-8-8-8h-8c-4.418 0-8 3.582-8 8s3.582 8 8 8z"/><path d="m200 104h104c4.418 0 8-3.582 8-8s-3.582-8-8-8h-104c-4.418 0-8 3.582-8 8s3.582 8 8 8z"/><path d="m168 128h8c4.418 0 8-3.582 8-8s-3.582-8-8-8h-8c-4.418 0-8 3.582-8 8s3.582 8 8 8z"/><path d="m200 128h104c4.418 0 8-3.582 8-8s-3.582-8-8-8h-104c-4.418 0-8 3.582-8 8s3.582 8 8 8z"/><path d="m56 352h-8c-4.418 0-8 3.582-8 8s3.582 8 8 8h8c4.418 0 8-3.582 8-8s-3.582-8-8-8z"/><path d="m128 352h-48c-4.418 0-8 3.582-8 8s3.582 8 8 8h48c4.418 0 8-3.582 8-8s-3.582-8-8-8z"/><path d="m56 376h-8c-4.418 0-8 3.582-8 8s3.582 8 8 8h8c4.418 0 8-3.582 8-8s-3.582-8-8-8z"/><path d="m128 376h-48c-4.418 0-8 3.582-8 8s3.582 8 8 8h48c4.418 0 8-3.582 8-8s-3.582-8-8-8z"/><path d="m56 400h-8c-4.418 0-8 3.582-8 8s3.582 8 8 8h8c4.418 0 8-3.582 8-8s-3.582-8-8-8z"/><path d="m128 400h-48c-4.418 0-8 3.582-8 8s3.582 8 8 8h48c4.418 0 8-3.582 8-8s-3.582-8-8-8z"/><path d="m139.2 241.6-19.2 14.4c0-4.418-3.582-8-8-8h-64c-4.418 0-8 3.582-8 8v64c0 4.418 3.582 8 8 8h64c4.418 0 8-3.582 8-8v-44l28.8-21.6c3.535-2.651 4.251-7.665 1.6-11.2s-7.665-4.251-11.2-1.6zm-35.2 70.4h-48v-48h48v4l-21.131 15.849-3.714-7.427c-1.945-3.967-6.738-5.606-10.705-3.661s-5.606 6.738-3.661 10.705c.018.037.037.075.056.112l8 16c1.976 3.952 6.782 5.553 10.733 3.577.429-.215.838-.467 1.222-.755l19.2-14.4z"/><path d="m168 168h8c4.418 0 8-3.582 8-8s-3.582-8-8-8h-8c-4.418 0-8 3.582-8 8s3.582 8 8 8z"/><path d="m200 168h56c4.418 0 8-3.582 8-8s-3.582-8-8-8h-56c-4.418 0-8 3.582-8 8s3.582 8 8 8z"/><path d="m168 192h8c4.418 0 8-3.582 8-8s-3.582-8-8-8h-8c-4.418 0-8 3.582-8 8s3.582 8 8 8z"/><path d="m184 208c0-4.418-3.582-8-8-8h-8c-4.418 0-8 3.582-8 8s3.582 8 8 8h8c4.418 0 8-3.582 8-8z"/><path d="m200 192h56c4.418 0 8-3.582 8-8s-3.582-8-8-8h-56c-4.418 0-8 3.582-8 8s3.582 8 8 8z"/></g></g></svg>