<svg id="Capa_1" enable-background="new 0 0 512 512" height="512" viewBox="0 0 512 512" width="512" xmlns="http://www.w3.org/2000/svg"><g><path d="m512 250.25c0 46.64-37.81 84.45-84.45 84.45h-343.1c-46.64 0-84.45-37.81-84.45-84.45 0-36.9 23.67-68.25 56.66-79.74-2.71-41.5 30.2-75.99 71.1-75.99 11.02 0 21.45 2.51 30.76 6.97 16.4-37.58 53.87-63.84 97.48-63.84s81.08 26.26 97.48 63.84c9.31-4.46 19.74-6.97 30.76-6.97 40.99 0 73.81 34.58 71.11 75.99 32.98 11.49 56.65 42.84 56.65 79.74z" fill="#a8ebfa"/><path d="m512 250.25c0 46.64-37.81 84.45-84.45 84.45h-171.55v-297.05c43.61 0 81.08 26.26 97.48 63.84 9.31-4.46 19.74-6.97 30.76-6.97 40.99 0 73.81 34.58 71.11 75.99 32.98 11.49 56.65 42.84 56.65 79.74z" fill="#7dd5f4"/><path d="m356.429 234.89v54.11c0 8.28-6.72 15-15 15s-15-6.72-15-15v-54.11c0-38.83-31.6-70.43-70.43-70.43s-70.43 31.6-70.43 70.43v54.11c0 8.28-6.72 15-15 15s-15-6.72-15-15v-54.11c0-55.38 45.05-100.43 100.43-100.43s100.43 45.05 100.43 100.43z" fill="#5e54ac"/><path d="m356.429 234.89v54.11c0 8.28-6.72 15-15 15s-15-6.72-15-15v-54.11c0-38.83-31.6-70.43-70.43-70.43v-30c55.38 0 100.43 45.05 100.43 100.43z" fill="#453d81"/><path d="m383.83 289v170.35c0 8.28-6.72 15-15 15h-225.66c-8.28 0-15-6.72-15-15v-170.35c0-8.29 6.72-15 15-15h225.66c8.28 0 15 6.71 15 15z" fill="#fabe2c"/><g><circle cx="255.999" cy="374.17" fill="#5e54ac" r="15"/></g><g><circle cx="195.999" cy="374.173" fill="#5e54ac" r="15"/></g><path d="m383.83 289v170.35c0 8.28-6.72 15-15 15h-112.83v-200.35h112.83c8.28 0 15 6.71 15 15z" fill="#ff9100"/><g><circle cx="315.999" cy="374.173" fill="#453d81" r="15"/></g><path d="m270.999 374.17c0 8.29-6.72 15-15 15v-30c8.28 0 15 6.72 15 15z" fill="#453d81"/></g></svg>